<svg xmlns="http://www.w3.org/2000/svg" width="2400" height="1500" viewBox="0 0 2400 1500" role="img" aria-labelledby="title desc"><title id="title">Clairveil Privacy System Architecture</title><desc id="desc">Aligned architecture showing the browser trust boundary, ClairveilJS, wallet, local state stores, optional prover, DApp proxy, relayer, and chain query and execution endpoints.</desc><defs><filter id="shadow" x="-20%" y="-20%" width="140%" height="160%"><feDropShadow dx="0" dy="6" stdDeviation="9" flood-color="#26344F" flood-opacity="0.09"/></filter><marker id="arrow-2563EB" viewBox="0 0 10 10" markerWidth="7" markerHeight="7" refX="8.6" refY="5" orient="auto-start-reverse" markerUnits="strokeWidth"><path d="M1 1 L9 5 L1 9 L3.2 5 Z" fill="#2563EB"/></marker><marker id="arrow-7C3AED" viewBox="0 0 10 10" markerWidth="7" markerHeight="7" refX="8.6" refY="5" orient="auto-start-reverse" markerUnits="strokeWidth"><path d="M1 1 L9 5 L1 9 L3.2 5 Z" fill="#7C3AED"/></marker><marker id="arrow-07965A" viewBox="0 0 10 10" markerWidth="7" markerHeight="7" refX="8.6" refY="5" orient="auto-start-reverse" markerUnits="strokeWidth"><path d="M1 1 L9 5 L1 9 L3.2 5 Z" fill="#07965A"/></marker><marker id="arrow-EA7A12" viewBox="0 0 10 10" markerWidth="7" markerHeight="7" refX="8.6" refY="5" orient="auto-start-reverse" markerUnits="strokeWidth"><path d="M1 1 L9 5 L1 9 L3.2 5 Z" fill="#EA7A12"/></marker><marker id="arrow-E23A3A" viewBox="0 0 10 10" markerWidth="7" markerHeight="7" refX="8.6" refY="5" orient="auto-start-reverse" markerUnits="strokeWidth"><path d="M1 1 L9 5 L1 9 L3.2 5 Z" fill="#E23A3A"/></marker><marker id="arrow-6B7280" viewBox="0 0 10 10" markerWidth="7" markerHeight="7" refX="8.6" refY="5" orient="auto-start-reverse" markerUnits="strokeWidth"><path d="M1 1 L9 5 L1 9 L3.2 5 Z" fill="#6B7280"/></marker><marker id="arrow-A56A00" viewBox="0 0 10 10" markerWidth="7" markerHeight="7" refX="8.6" refY="5" orient="auto-start-reverse" markerUnits="strokeWidth"><path d="M1 1 L9 5 L1 9 L3.2 5 Z" fill="#A56A00"/></marker></defs><rect width="2400" height="1500" fill="#F7F9FC"/><text x="1200" y="58" text-anchor="middle" font-family="Noto Sans KR, Apple SD Gothic Neo, sans-serif" font-size="45" font-weight="800" fill="#172033"><tspan x="1200" dy="0">Clairveil 프라이버시 시스템 아키텍처</tspan></text><text x="1200" y="99" text-anchor="middle" font-family="Noto Sans KR, Apple SD Gothic Neo, sans-serif" font-size="20" font-weight="600" fill="#64748B"><tspan x="1200" dy="0">기본 흐름: User App → ClairveilJS → Wallet → Chain</tspan></text><rect x="50" y="250" width="1410" height="875" rx="28" fill="#F9FBFF" stroke="#9DB7E8" stroke-width="2" stroke-dasharray="10 9"/><rect x="78" y="230" width="240" height="38" rx="10" fill="#FFFFFF" stroke="#9DB7E8" stroke-width="1.4"/><text x="198" y="255" text-anchor="middle" font-family="Noto Sans KR, Apple SD Gothic Neo, sans-serif" font-size="15" font-weight="800" fill="#2563EB"><tspan x="198" dy="0">클라이언트 신뢰 경계</tspan></text><rect x="1840" y="250" width="510" height="875" rx="28" fill="#FFFDF8" stroke="#DDA33F" stroke-width="2"/><text x="2095" y="294" text-anchor="middle" font-family="Noto Sans KR, Apple SD Gothic Neo, sans-serif" font-size="27" font-weight="800" fill="#A56A00"><tspan x="2095" dy="0">Chain &amp; Query Endpoints</tspan></text><rect x="485" y="125" width="520" height="105" rx="18" fill="#EAFBF3" stroke="#07965A" stroke-width="2" filter="url(#shadow)"/><path d="M 535 153 l 21 12 v 24 l -21 12 -21 -12 v -24 Z" fill="#BDF1D8" stroke="#07965A" stroke-width="2.5"/><circle cx="535" cy="177" r="8" fill="#07965A"/><text x="755" y="157" text-anchor="middle" font-family="Noto Sans KR, Apple SD Gothic Neo, sans-serif" font-size="24" font-weight="800" fill="#07965A"><tspan x="755" dy="0">원격 Prover 서비스 (선택)</tspan></text><text x="755" y="189" text-anchor="middle" font-family="Noto Sans KR, Apple SD Gothic Neo, sans-serif" font-size="15" font-weight="600" fill="#64748B"><tspan x="755" dy="0">ZK proof 생성 · 외부 신뢰 경계</tspan></text><text x="755" y="213" text-anchor="middle" font-family="Noto Sans KR, Apple SD Gothic Neo, sans-serif" font-size="11.5" font-weight="700" fill="#07965A"><tspan x="755" dy="0">transfer/withdraw/batch: proverUrl · deposit: 별도 provider</tspan></text><rect x="90" y="405" width="280" height="340" rx="22" fill="#F6F0FF" stroke="#7C3AED" stroke-width="2" filter="url(#shadow)"/><text x="230" y="450" text-anchor="middle" font-family="Noto Sans KR, Apple SD Gothic Neo, sans-serif" font-size="24" font-weight="800" fill="#7C3AED"><tspan x="230" dy="0">사용자 앱 / Browser</tspan></text><text x="230" y="482" text-anchor="middle" font-family="Noto Sans KR, Apple SD Gothic Neo, sans-serif" font-size="15" font-weight="600" fill="#64748B"><tspan x="230" dy="0">DApp client</tspan></text><circle cx="185" cy="520" r="10" fill="#7C3AED"/><circle cx="185" cy="535" r="31" fill="none" stroke="#7C3AED" stroke-width="2.5"/><path d="M 162 555 Q 185 533 208 555" fill="none" stroke="#7C3AED" stroke-width="5" stroke-linecap="round"/><rect x="235" y="510" width="72" height="54" rx="10" fill="#FFFFFF" stroke="#7C3AED" stroke-width="2.5"/><circle cx="292" cy="537" r="4" fill="#7C3AED"/><circle cx="122" cy="610" r="3.4" fill="#7C3AED"/><text x="138" y="615" text-anchor="start" font-family="Noto Sans KR, Apple SD Gothic Neo, sans-serif" font-size="16" font-weight="500" fill="#172033"><tspan x="138" dy="0">SDK 기능 호출</tspan></text><circle cx="122" cy="645" r="3.4" fill="#7C3AED"/><text x="138" y="650" text-anchor="start" font-family="Noto Sans KR, Apple SD Gothic Neo, sans-serif" font-size="16" font-weight="500" fill="#172033"><tspan x="138" dy="0">privacy root signature</tspan></text><circle cx="122" cy="680" r="3.4" fill="#7C3AED"/><text x="138" y="685" text-anchor="start" font-family="Noto Sans KR, Apple SD Gothic Neo, sans-serif" font-size="16" font-weight="500" fill="#172033"><tspan x="138" dy="0">wallet context 제공</tspan></text><circle cx="122" cy="715" r="3.4" fill="#7C3AED"/><text x="138" y="720" text-anchor="start" font-family="Noto Sans KR, Apple SD Gothic Neo, sans-serif" font-size="16" font-weight="500" fill="#172033"><tspan x="138" dy="0">결과 확인</tspan></text><rect x="450" y="320" width="590" height="440" rx="24" fill="#EEF5FF" stroke="#2563EB" stroke-width="2.2" filter="url(#shadow)"/><path d="M 488 352 l 22 -13 22 13 -22 13 Z" fill="#2563EB"/><path d="M 488 352 v 26 l 22 13 V 365 Z" fill="#1D4ED8"/><path d="M 532 352 v 26 l -22 13 V 365 Z" fill="#60A5FA"/><text x="745" y="370" text-anchor="middle" font-family="Noto Sans KR, Apple SD Gothic Neo, sans-serif" font-size="24" font-weight="800" fill="#173B8E"><tspan x="745" dy="0">ClairveilJS SDK</tspan></text><text x="745" y="402" text-anchor="middle" font-family="Noto Sans KR, Apple SD Gothic Neo, sans-serif" font-size="15" font-weight="600" fill="#64748B"><tspan x="745" dy="0">클라이언트 런타임</tspan></text><rect x="480" y="418" width="345" height="300" rx="16" fill="#FFFFFF" stroke="#94B9F7" stroke-width="1.5"/><text x="652" y="452" text-anchor="middle" font-family="Noto Sans KR, Apple SD Gothic Neo, sans-serif" font-size="19" font-weight="800" fill="#2563EB"><tspan x="652" dy="0">Core Responsibilities</tspan></text><circle cx="501" cy="485" r="3.4" fill="#2563EB"/><text x="517" y="490" text-anchor="start" font-family="Noto Sans KR, Apple SD Gothic Neo, sans-serif" font-size="14" font-weight="500" fill="#172033"><tspan x="517" dy="0">proof 응답 contract·binding 검증</tspan></text><circle cx="501" cy="517" r="3.4" fill="#2563EB"/><text x="517" y="522" text-anchor="start" font-family="Noto Sans KR, Apple SD Gothic Neo, sans-serif" font-size="14" font-weight="500" fill="#172033"><tspan x="517" dy="0">proverAdapter 연동</tspan></text><circle cx="501" cy="549" r="3.4" fill="#2563EB"/><text x="517" y="554" text-anchor="start" font-family="Noto Sans KR, Apple SD Gothic Neo, sans-serif" font-size="14" font-weight="700" fill="#172033"><tspan x="517" dy="0">Reservation lifecycle 관리</tspan></text><circle cx="501" cy="581" r="3.4" fill="#2563EB"/><text x="517" y="586" text-anchor="start" font-family="Noto Sans KR, Apple SD Gothic Neo, sans-serif" font-size="14" font-weight="500" fill="#172033"><tspan x="517" dy="0">Wallet 연동 및 서명 요청</tspan></text><circle cx="501" cy="613" r="3.4" fill="#2563EB"/><text x="517" y="618" text-anchor="start" font-family="Noto Sans KR, Apple SD Gothic Neo, sans-serif" font-size="14" font-weight="500" fill="#172033"><tspan x="517" dy="0">privacy 연산·transaction build</tspan></text><circle cx="501" cy="645" r="3.4" fill="#2563EB"/><text x="517" y="650" text-anchor="start" font-family="Noto Sans KR, Apple SD Gothic Neo, sans-serif" font-size="14" font-weight="500" fill="#172033"><tspan x="517" dy="0">선택적 broadcast helper</tspan></text><circle cx="501" cy="677" r="3.4" fill="#2563EB"/><text x="517" y="682" text-anchor="start" font-family="Noto Sans KR, Apple SD Gothic Neo, sans-serif" font-size="14" font-weight="500" fill="#172033"><tspan x="517" dy="0">evidence 기반 reconcile</tspan></text><rect x="846" y="418" width="164" height="150" rx="15" fill="#FFFFFF" stroke="#B8CDF4" stroke-width="1.4"/><text x="928" y="450" text-anchor="middle" font-family="Noto Sans KR, Apple SD Gothic Neo, sans-serif" font-size="16" font-weight="800" fill="#2563EB"><tspan x="928" dy="0">Product-Defined</tspan></text><circle cx="866" cy="481" r="3.4" fill="#2563EB"/><text x="882" y="486" text-anchor="start" font-family="Noto Sans KR, Apple SD Gothic Neo, sans-serif" font-size="12.5" font-weight="500" fill="#172033"><tspan x="882" dy="0">정책·수수료</tspan></text><circle cx="866" cy="511" r="3.4" fill="#2563EB"/><text x="882" y="516" text-anchor="start" font-family="Noto Sans KR, Apple SD Gothic Neo, sans-serif" font-size="12.5" font-weight="500" fill="#172033"><tspan x="882" dy="0">checkpoint</tspan></text><circle cx="866" cy="541" r="3.4" fill="#2563EB"/><text x="882" y="546" text-anchor="start" font-family="Noto Sans KR, Apple SD Gothic Neo, sans-serif" font-size="12.5" font-weight="500" fill="#172033"><tspan x="882" dy="0">UX·재시도</tspan></text><rect x="846" y="588" width="164" height="130" rx="15" fill="#F8FBFF" stroke="#B8CDF4" stroke-width="1.4"/><text x="928" y="620" text-anchor="middle" font-family="Noto Sans KR, Apple SD Gothic Neo, sans-serif" font-size="16" font-weight="800" fill="#173B8E"><tspan x="928" dy="0">SDK 보장</tspan></text><text x="865" y="640.5" text-anchor="start" font-family="Noto Sans KR, Apple SD Gothic Neo, sans-serif" font-size="12.5" font-weight="600" fill="#172033"><tspan x="865" dy="0">• CAS 상태 전이</tspan><tspan x="865" dy="15.25">• fail-closed</tspan><tspan x="865" dy="15.25">  note 재사용 방지</tspan></text><rect x="1120" y="405" width="300" height="300" rx="22" fill="#F6F0FF" stroke="#7C3AED" stroke-width="2" filter="url(#shadow)"/><rect x="1222" y="451" width="94" height="54" rx="12" fill="#FFFFFF" stroke="#7C3AED" stroke-width="3"/><rect x="1280" y="467" width="49" height="24" rx="8" fill="#E9DEFF" stroke="#7C3AED" stroke-width="2"/><circle cx="1309" cy="479" r="4" fill="#7C3AED"/><text x="1270" y="552" text-anchor="middle" font-family="Noto Sans KR, Apple SD Gothic Neo, sans-serif" font-size="24" font-weight="800" fill="#7C3AED"><tspan x="1270" dy="0">Wallet</tspan></text><text x="1270" y="584" text-anchor="middle" font-family="Noto Sans KR, Apple SD Gothic Neo, sans-serif" font-size="15" font-weight="600" fill="#64748B"><tspan x="1270" dy="0">사용자 지갑</tspan></text><circle cx="1162" cy="615" r="3.4" fill="#7C3AED"/><text x="1178" y="620" text-anchor="start" font-family="Noto Sans KR, Apple SD Gothic Neo, sans-serif" font-size="16" font-weight="500" fill="#172033"><tspan x="1178" dy="0">transaction 검토</tspan></text><circle cx="1162" cy="650" r="3.4" fill="#7C3AED"/><text x="1178" y="655" text-anchor="start" font-family="Noto Sans KR, Apple SD Gothic Neo, sans-serif" font-size="16" font-weight="500" fill="#172033"><tspan x="1178" dy="0">실제 서명 수행</tspan></text><circle cx="1162" cy="685" r="3.4" fill="#7C3AED"/><text x="1178" y="690" text-anchor="start" font-family="Noto Sans KR, Apple SD Gothic Neo, sans-serif" font-size="16" font-weight="500" fill="#172033"><tspan x="1178" dy="0">계정·키 관리</tspan></text><rect x="450" y="820" width="590" height="230" rx="22" fill="#F7FBFF" stroke="#6FA1F5" stroke-width="1.8" filter="url(#shadow)"/><ellipse cx="500" cy="880" rx="23" ry="9" fill="#D9E8FF" stroke="#2563EB" stroke-width="2"/><path d="M 477 880 v 31 c 0 6 10 9 23 9 s 23 -3 23 -9 v -31" fill="#EEF5FF" stroke="#2563EB" stroke-width="2"/><ellipse cx="500" cy="911" rx="23" ry="9" fill="#EEF5FF" stroke="#2563EB" stroke-width="2"/><text x="745" y="870" text-anchor="middle" font-family="Noto Sans KR, Apple SD Gothic Neo, sans-serif" font-size="24" font-weight="800" fill="#2563EB"><tspan x="745" dy="0">Client State Stores</tspan></text><text x="745" y="902" text-anchor="middle" font-family="Noto Sans KR, Apple SD Gothic Neo, sans-serif" font-size="15" font-weight="600" fill="#64748B"><tspan x="745" dy="0">브라우저 로컬 · 저장소별 보안 계약</tspan></text><rect x="480" y="915" width="255" height="103" rx="12" fill="#FFFFFF" stroke="#B8CDF4" stroke-width="1.2"/><text x="607" y="942" text-anchor="middle" font-family="Noto Sans KR, Apple SD Gothic Neo, sans-serif" font-size="14" font-weight="800" fill="#173B8E"><tspan x="607" dy="0">Note Store · scan inventory</tspan></text><text x="495" y="969" text-anchor="start" font-family="Noto Sans KR, Apple SD Gothic Neo, sans-serif" font-size="11.5" font-weight="600" fill="#172033"><tspan x="495" dy="0">Production: encrypted wallet DB</tspan></text><text x="495" y="991" text-anchor="start" font-family="Noto Sans KR, Apple SD Gothic Neo, sans-serif" font-size="11.5" font-weight="600" fill="#172033"><tspan x="495" dy="0">LocalStorageNoteStore: plaintext</tspan></text><text x="495" y="1009" text-anchor="start" font-family="Noto Sans KR, Apple SD Gothic Neo, sans-serif" font-size="11.5" font-weight="700" fill="#E23A3A"><tspan x="495" dy="0">demo/test only</tspan></text><rect x="755" y="915" width="255" height="103" rx="12" fill="#FFFFFF" stroke="#B8CDF4" stroke-width="1.2"/><text x="882" y="942" text-anchor="middle" font-family="Noto Sans KR, Apple SD Gothic Neo, sans-serif" font-size="14" font-weight="800" fill="#173B8E"><tspan x="882" dy="0">Reservation Store · leases</tspan></text><text x="770" y="969" text-anchor="start" font-family="Noto Sans KR, Apple SD Gothic Neo, sans-serif" font-size="11.5" font-weight="600" fill="#172033"><tspan x="770" dy="0">encrypted IndexedDB + Web Locks</tspan></text><text x="770" y="991" text-anchor="start" font-family="Noto Sans KR, Apple SD Gothic Neo, sans-serif" font-size="11.5" font-weight="600" fill="#172033"><tspan x="770" dy="0">multi-tab CAS · fail-closed</tspan></text><text x="770" y="1009" text-anchor="start" font-family="Noto Sans KR, Apple SD Gothic Neo, sans-serif" font-size="11.5" font-weight="700" fill="#172033"><tspan x="770" dy="0">note 재사용 방지</tspan></text><text x="745" y="1040" text-anchor="middle" font-family="Noto Sans KR, Apple SD Gothic Neo, sans-serif" font-size="13" font-weight="700" fill="#173B8E"><tspan x="745" dy="0">Production 저장 키와 private material은 ciphertext와 분리</tspan></text><rect x="1500" y="690" width="300" height="205" rx="22" fill="#FFF5E8" stroke="#EA7A12" stroke-width="2" filter="url(#shadow)"/><rect x="1535" y="734" width="53" height="13" rx="4" fill="#FFFFFF" stroke="#EA7A12" stroke-width="2"/><circle cx="1574" cy="740" r="2.5" fill="#EA7A12"/><rect x="1535" y="752" width="53" height="13" rx="4" fill="#FFFFFF" stroke="#EA7A12" stroke-width="2"/><circle cx="1574" cy="758" r="2.5" fill="#EA7A12"/><rect x="1535" y="770" width="53" height="13" rx="4" fill="#FFFFFF" stroke="#EA7A12" stroke-width="2"/><circle cx="1574" cy="776" r="2.5" fill="#EA7A12"/><text x="1665" y="738" text-anchor="middle" font-family="Noto Sans KR, Apple SD Gothic Neo, sans-serif" font-size="24" font-weight="800" fill="#EA7A12"><tspan x="1665" dy="0">DApp 서버 (선택)</tspan></text><text x="1665" y="770" text-anchor="middle" font-family="Noto Sans KR, Apple SD Gothic Neo, sans-serif" font-size="15" font-weight="600" fill="#64748B"><tspan x="1665" dy="0">API proxy / gateway</tspan></text><circle cx="1532" cy="790" r="3.4" fill="#EA7A12"/><text x="1548" y="795" text-anchor="start" font-family="Noto Sans KR, Apple SD Gothic Neo, sans-serif" font-size="13.5" font-weight="500" fill="#172033"><tspan x="1548" dy="0">prover·query endpoint proxy</tspan></text><circle cx="1532" cy="821" r="3.4" fill="#EA7A12"/><text x="1548" y="826" text-anchor="start" font-family="Noto Sans KR, Apple SD Gothic Neo, sans-serif" font-size="13.5" font-weight="700" fill="#172033"><tspan x="1548" dy="0">prover payload 로그·캐시 금지</tspan></text><circle cx="1532" cy="852" r="3.4" fill="#EA7A12"/><text x="1548" y="857" text-anchor="start" font-family="Noto Sans KR, Apple SD Gothic Neo, sans-serif" font-size="13" font-weight="700" fill="#172033"><tspan x="1548" dy="0">privacy material·복호화 note 저장 금지</tspan></text><text x="1650" y="884" text-anchor="middle" font-family="Noto Sans KR, Apple SD Gothic Neo, sans-serif" font-size="12.5" font-weight="700" fill="#64748B"><tspan x="1650" dy="0">서명·권한 주체 아님</tspan></text><rect x="1500" y="945" width="300" height="170" rx="22" fill="#FFF1F1" stroke="#E23A3A" stroke-width="2" filter="url(#shadow)"/><path d="M 1559 962 l -25 35 h 18 l -10 28 32 -42 h -20 Z" fill="#FFD4D4" stroke="#E23A3A" stroke-width="2.5"/><text x="1665" y="985" text-anchor="middle" font-family="Noto Sans KR, Apple SD Gothic Neo, sans-serif" font-size="24" font-weight="800" fill="#E23A3A"><tspan x="1665" dy="0">Relayer</tspan></text><text x="1665" y="1017" text-anchor="middle" font-family="Noto Sans KR, Apple SD Gothic Neo, sans-serif" font-size="15" font-weight="600" fill="#64748B"><tspan x="1665" dy="0">별도 제출 주체</tspan></text><circle cx="1532" cy="1035" r="3.4" fill="#E23A3A"/><text x="1548" y="1040" text-anchor="start" font-family="Noto Sans KR, Apple SD Gothic Neo, sans-serif" font-size="13.5" font-weight="500" fill="#172033"><tspan x="1548" dy="0">relay withdraw payload 검증</tspan></text><circle cx="1532" cy="1065" r="3.4" fill="#E23A3A"/><text x="1548" y="1070" text-anchor="start" font-family="Noto Sans KR, Apple SD Gothic Neo, sans-serif" font-size="13.5" font-weight="500" fill="#172033"><tspan x="1548" dy="0">자기 계정으로 제출</tspan></text><text x="1650" y="1098" text-anchor="middle" font-family="Noto Sans KR, Apple SD Gothic Neo, sans-serif" font-size="12.5" font-weight="600" fill="#64748B"><tspan x="1650" dy="0">재시도·수수료 정책: product-defined</tspan></text><rect x="1880" y="325" width="430" height="315" rx="20" fill="#FFF8E8" stroke="#D9901C" stroke-width="1.8" filter="url(#shadow)"/><path d="M 1940 383 l 32 13 v 31 c 0 29 -19 45 -32 53 -13 -8 -32 -24 -32 -53 v -31 Z" fill="#FFF0BF" stroke="#A56A00" stroke-width="3"/><path d="M 1940 403 l 7 14 15 2 -11 11 3 15 -14 -7 -14 7 3 -15 -11 -11 15 -2 Z" fill="#A56A00"/><text x="2120" y="376" text-anchor="middle" font-family="Noto Sans KR, Apple SD Gothic Neo, sans-serif" font-size="24" font-weight="800" fill="#A56A00"><tspan x="2120" dy="0">온체인 실행 엔드포인트</tspan></text><text x="2120" y="408" text-anchor="middle" font-family="Noto Sans KR, Apple SD Gothic Neo, sans-serif" font-size="15" font-weight="600" fill="#64748B"><tspan x="2120" dy="0">Cosmos module · downstream EVM</tspan></text><circle cx="1918" cy="495" r="3.4" fill="#A56A00"/><text x="1934" y="500" text-anchor="start" font-family="Noto Sans KR, Apple SD Gothic Neo, sans-serif" font-size="15" font-weight="500" fill="#172033"><tspan x="1934" dy="0">transaction 제출·proof 검증</tspan></text><circle cx="1918" cy="535" r="3.4" fill="#A56A00"/><text x="1934" y="540" text-anchor="start" font-family="Noto Sans KR, Apple SD Gothic Neo, sans-serif" font-size="15" font-weight="500" fill="#172033"><tspan x="1934" dy="0">상태 기록 및 이벤트 발생</tspan></text><circle cx="1918" cy="575" r="3.4" fill="#A56A00"/><text x="1934" y="580" text-anchor="start" font-family="Noto Sans KR, Apple SD Gothic Neo, sans-serif" font-size="15" font-weight="500" fill="#172033"><tspan x="1934" dy="0">nullifier 사용 반영</tspan></text><text x="2095" y="608" text-anchor="middle" font-family="Noto Sans KR, Apple SD Gothic Neo, sans-serif" font-size="12" font-weight="700" fill="#A56A00"><tspan x="2095" dy="0">EVM precompile 제공: target/downstream chain</tspan></text><text x="2095" y="628" text-anchor="middle" font-family="Noto Sans KR, Apple SD Gothic Neo, sans-serif" font-size="11.5" font-weight="800" fill="#A56A00"><tspan x="2095" dy="0">One-Proof batch: Cosmos Msg / EVM precompile</tspan></text><rect x="1880" y="750" width="430" height="310" rx="20" fill="#FFF8E8" stroke="#D9901C" stroke-width="1.8" filter="url(#shadow)"/><circle cx="1940" cy="835" r="32" fill="#FFF0BF" stroke="#A56A00" stroke-width="2.5"/><ellipse cx="1940" cy="835" rx="15" ry="32" fill="none" stroke="#A56A00" stroke-width="2"/><path d="M 1908 835 h 64 M 1914 820 h 52 M 1914 850 h 52" fill="none" stroke="#A56A00" stroke-width="2"/><text x="2120" y="800" text-anchor="middle" font-family="Noto Sans KR, Apple SD Gothic Neo, sans-serif" font-size="24" font-weight="800" fill="#A56A00"><tspan x="2120" dy="0">Query / REST / RPC</tspan></text><text x="2120" y="832" text-anchor="middle" font-family="Noto Sans KR, Apple SD Gothic Neo, sans-serif" font-size="15" font-weight="600" fill="#64748B"><tspan x="2120" dy="0">읽기 전용 endpoint</tspan></text><circle cx="1918" cy="900" r="3.4" fill="#A56A00"/><text x="1934" y="905" text-anchor="start" font-family="Noto Sans KR, Apple SD Gothic Neo, sans-serif" font-size="15" font-weight="500" fill="#172033"><tspan x="1934" dy="0">privacy scan outputs · nullifiers</tspan></text><circle cx="1918" cy="940" r="3.4" fill="#A56A00"/><text x="1934" y="945" text-anchor="start" font-family="Noto Sans KR, Apple SD Gothic Neo, sans-serif" font-size="15" font-weight="500" fill="#172033"><tspan x="1934" dy="0">events / scan events</tspan></text><circle cx="1918" cy="980" r="3.4" fill="#A56A00"/><text x="1934" y="985" text-anchor="start" font-family="Noto Sans KR, Apple SD Gothic Neo, sans-serif" font-size="15" font-weight="500" fill="#172033"><tspan x="1934" dy="0">Merkle path · circuit/audit/asset config</tspan></text><text x="2095" y="1032" text-anchor="middle" font-family="Noto Sans KR, Apple SD Gothic Neo, sans-serif" font-size="13" font-weight="700" fill="#64748B"><tspan x="2095" dy="0">공개 체인 데이터 기반 조회</tspan></text><path d="M 1650 690 C 1650 470 1450 285 1005 190" fill="none" stroke="#EA7A12" stroke-width="3" stroke-linecap="round" stroke-linejoin="round" stroke-dasharray="9 8" marker-end="url(#arrow-EA7A12)"/><rect x="1240" y="264" width="250" height="31" rx="10" fill="#FFFFFF" stroke="#EA7A12" stroke-width="1.2"/><text x="1365" y="284" text-anchor="middle" font-family="Noto Sans KR, Apple SD Gothic Neo, sans-serif" font-size="12.5" font-weight="700" fill="#EA7A12"><tspan x="1365" dy="0">proxied private prover payload</tspan></text><path d="M 370 550 L 450 550" fill="none" stroke="#2563EB" stroke-width="4.5" stroke-linecap="round" stroke-linejoin="round" marker-end="url(#arrow-2563EB)"/><path d="M 1040 550 L 1120 550" fill="none" stroke="#2563EB" stroke-width="4.5" stroke-linecap="round" stroke-linejoin="round" marker-end="url(#arrow-2563EB)"/><path d="M 1420 550 L 1880 550" fill="none" stroke="#2563EB" stroke-width="4.5" stroke-linecap="round" stroke-linejoin="round" marker-end="url(#arrow-2563EB)"/><text x="410" y="527" text-anchor="middle" font-family="Noto Sans KR, Apple SD Gothic Neo, sans-serif" font-size="11.5" font-weight="800" fill="#2563EB"><tspan x="410" dy="0">root / context</tspan></text><text x="1080" y="527" text-anchor="middle" font-family="Noto Sans KR, Apple SD Gothic Neo, sans-serif" font-size="11.5" font-weight="800" fill="#2563EB"><tspan x="1080" dy="0">sign 요청</tspan></text><rect x="1510" y="505" width="235" height="31" rx="10" fill="#FFFFFF" stroke="#2563EB" stroke-width="1.2"/><text x="1627.5" y="525" text-anchor="middle" font-family="Noto Sans KR, Apple SD Gothic Neo, sans-serif" font-size="12.5" font-weight="700" fill="#2563EB"><tspan x="1627.5" dy="0">signed transaction</tspan></text><rect x="1465" y="446" width="325" height="47" rx="10" fill="#FFFFFF" stroke="#07965A" stroke-width="1.2"/><text x="1627.5" y="458.04" text-anchor="middle" font-family="Noto Sans KR, Apple SD Gothic Neo, sans-serif" font-size="12" font-weight="700" fill="#07965A"><tspan x="1627.5" dy="0">SDK helper도 Wallet 서명 후</tspan><tspan x="1627.5" dy="14.64">broadcast lifecycle을 관리 (선택)</tspan></text><path d="M 665 320 L 665 230" fill="none" stroke="#07965A" stroke-width="3" stroke-linecap="round" stroke-linejoin="round" stroke-dasharray="8 7" marker-end="url(#arrow-07965A)"/><path d="M 805 230 L 805 320" fill="none" stroke="#07965A" stroke-width="3" stroke-linecap="round" stroke-linejoin="round" stroke-dasharray="8 7" marker-end="url(#arrow-07965A)"/><rect x="678" y="242" width="114" height="47" rx="10" fill="#FFFFFF" stroke="#07965A" stroke-width="1.2"/><text x="735" y="254.04" text-anchor="middle" font-family="Noto Sans KR, Apple SD Gothic Neo, sans-serif" font-size="12" font-weight="700" fill="#07965A"><tspan x="735" dy="0">증명 요청</tspan><tspan x="735" dy="14.64">proof 응답</tspan></text><path d="M 745 760 L 745 820" fill="none" stroke="#2563EB" stroke-width="3" stroke-linecap="round" stroke-linejoin="round" marker-start="url(#arrow-2563EB)" marker-end="url(#arrow-2563EB)"/><rect x="772" y="773" width="134" height="31" rx="10" fill="#FFFFFF" stroke="#2563EB" stroke-width="1.2"/><text x="839" y="793" text-anchor="middle" font-family="Noto Sans KR, Apple SD Gothic Neo, sans-serif" font-size="12.5" font-weight="700" fill="#2563EB"><tspan x="839" dy="0">store read/write</tspan></text><path d="M 1040 350 H 1080 V 215 H 2370 V 905 H 2310" fill="none" stroke="#6B7280" stroke-width="2.8" stroke-linecap="round" stroke-linejoin="round" stroke-dasharray="8 8" marker-end="url(#arrow-6B7280)"/><rect x="1140" y="174" width="185" height="31" rx="10" fill="#FFFFFF" stroke="#6B7280" stroke-width="1.2"/><text x="1232.5" y="194" text-anchor="middle" font-family="Noto Sans KR, Apple SD Gothic Neo, sans-serif" font-size="12.5" font-weight="700" fill="#6B7280"><tspan x="1232.5" dy="0">읽기 전용 직접 조회</tspan></text><path d="M 1040 720 C 1200 720 1330 792 1500 792" fill="none" stroke="#EA7A12" stroke-width="3" stroke-linecap="round" stroke-linejoin="round" stroke-dasharray="9 8" marker-end="url(#arrow-EA7A12)"/><path d="M 1800 792 L 1880 792" fill="none" stroke="#EA7A12" stroke-width="3" stroke-linecap="round" stroke-linejoin="round" stroke-dasharray="9 8" marker-end="url(#arrow-EA7A12)"/><rect x="1125" y="740" width="205" height="31" rx="10" fill="#FFFFFF" stroke="#EA7A12" stroke-width="1.2"/><text x="1227.5" y="760" text-anchor="middle" font-family="Noto Sans KR, Apple SD Gothic Neo, sans-serif" font-size="12.5" font-weight="700" fill="#EA7A12"><tspan x="1227.5" dy="0">선택적 DApp proxy</tspan></text><path d="M 1040 742 C 1210 800 1280 1025 1500 1025" fill="none" stroke="#E23A3A" stroke-width="3" stroke-linecap="round" stroke-linejoin="round" stroke-dasharray="9 8" marker-end="url(#arrow-E23A3A)"/><rect x="1110" y="860" width="205" height="31" rx="10" fill="#FFFFFF" stroke="#E23A3A" stroke-width="1.2"/><text x="1212.5" y="880" text-anchor="middle" font-family="Noto Sans KR, Apple SD Gothic Neo, sans-serif" font-size="12.5" font-weight="700" fill="#E23A3A"><tspan x="1212.5" dy="0">relay payload handoff</tspan></text><path d="M 1800 1025 H 1820 V 590 H 1880" fill="none" stroke="#E23A3A" stroke-width="4" stroke-linecap="round" stroke-linejoin="round" marker-end="url(#arrow-E23A3A)"/><rect x="1685" y="590" width="190" height="47" rx="10" fill="#FFFFFF" stroke="#E23A3A" stroke-width="1.2"/><text x="1780" y="602.04" text-anchor="middle" font-family="Noto Sans KR, Apple SD Gothic Neo, sans-serif" font-size="12" font-weight="700" fill="#E23A3A"><tspan x="1780" dy="0">Relayer → Chain</tspan><tspan x="1780" dy="14.64">자기 계정으로 제출</tspan></text><path d="M 2095 640 L 2095 750" fill="none" stroke="#6B7280" stroke-width="2.5" stroke-linecap="round" stroke-linejoin="round" stroke-dasharray="7 7" marker-end="url(#arrow-6B7280)"/><rect x="1980" y="676" width="230" height="31" rx="10" fill="#FFFFFF" stroke="#6B7280" stroke-width="1.2"/><text x="2095" y="696" text-anchor="middle" font-family="Noto Sans KR, Apple SD Gothic Neo, sans-serif" font-size="12.5" font-weight="700" fill="#6B7280"><tspan x="2095" dy="0">공개 chain state 조회</tspan></text><rect x="350" y="1165" width="1700" height="82" rx="16" fill="#F5F9FF" stroke="#82ACF8" stroke-width="1.6"/><circle cx="392" cy="1206" r="17" fill="#2563EB"/><text x="392" y="1213" text-anchor="middle" font-family="Noto Sans KR, Apple SD Gothic Neo, sans-serif" font-size="21" font-weight="800" fill="#FFFFFF"><tspan x="392" dy="0">i</tspan></text><text x="430" y="1195" text-anchor="start" font-family="Noto Sans KR, Apple SD Gothic Neo, sans-serif" font-size="17" font-weight="800" fill="#173B8E"><tspan x="430" dy="0">중요: note 상태와 operation 성공은 별개</tspan></text><text x="430" y="1225" text-anchor="start" font-family="Noto Sans KR, Apple SD Gothic Neo, sans-serif" font-size="14" font-weight="600" fill="#172033"><tspan x="430" dy="0">ConfirmedSpent는 입력 note 소비 확인이며, payment/operation 성공은 operation_status와 transaction/output evidence로 별도 검증합니다.</tspan></text><rect x="65" y="1285" width="2270" height="130" rx="17" fill="#FFFFFF" stroke="#BBC6D8" stroke-width="1.4"/><path d="M 105 1350 L 167 1350" fill="none" stroke="#2563EB" stroke-width="4" stroke-linecap="round" stroke-linejoin="round" marker-end="url(#arrow-2563EB)"/><text x="189" y="1342" text-anchor="start" font-family="Noto Sans KR, Apple SD Gothic Neo, sans-serif" font-size="14" font-weight="800" fill="#2563EB"><tspan x="189" dy="0">기본 흐름</tspan></text><text x="189" y="1372" text-anchor="start" font-family="Noto Sans KR, Apple SD Gothic Neo, sans-serif" font-size="12.5" font-weight="600" fill="#64748B"><tspan x="189" dy="0">User → SDK → Wallet → Chain</tspan></text><path d="M 515 1350 L 577 1350" fill="none" stroke="#07965A" stroke-width="3" stroke-linecap="round" stroke-linejoin="round" stroke-dasharray="9 8" marker-end="url(#arrow-07965A)"/><text x="599" y="1342" text-anchor="start" font-family="Noto Sans KR, Apple SD Gothic Neo, sans-serif" font-size="14" font-weight="800" fill="#07965A"><tspan x="599" dy="0">Prover / SDK helper</tspan></text><text x="599" y="1372" text-anchor="start" font-family="Noto Sans KR, Apple SD Gothic Neo, sans-serif" font-size="12.5" font-weight="600" fill="#64748B"><tspan x="599" dy="0">원격 prover · helper orchestration</tspan></text><path d="M 925 1350 L 987 1350" fill="none" stroke="#6B7280" stroke-width="3" stroke-linecap="round" stroke-linejoin="round" stroke-dasharray="8 8" marker-end="url(#arrow-6B7280)"/><text x="1009" y="1342" text-anchor="start" font-family="Noto Sans KR, Apple SD Gothic Neo, sans-serif" font-size="14" font-weight="800" fill="#6B7280"><tspan x="1009" dy="0">읽기 전용 조회</tspan></text><text x="1009" y="1372" text-anchor="start" font-family="Noto Sans KR, Apple SD Gothic Neo, sans-serif" font-size="12.5" font-weight="600" fill="#64748B"><tspan x="1009" dy="0">Query / REST / RPC</tspan></text><path d="M 1335 1350 L 1397 1350" fill="none" stroke="#EA7A12" stroke-width="3" stroke-linecap="round" stroke-linejoin="round" stroke-dasharray="9 8" marker-end="url(#arrow-EA7A12)"/><text x="1419" y="1342" text-anchor="start" font-family="Noto Sans KR, Apple SD Gothic Neo, sans-serif" font-size="14" font-weight="800" fill="#EA7A12"><tspan x="1419" dy="0">선택적 Proxy</tspan></text><text x="1419" y="1372" text-anchor="start" font-family="Noto Sans KR, Apple SD Gothic Neo, sans-serif" font-size="12.5" font-weight="600" fill="#64748B"><tspan x="1419" dy="0">DApp server 경유</tspan></text><path d="M 1745 1350 L 1807 1350" fill="none" stroke="#E23A3A" stroke-width="4" stroke-linecap="round" stroke-linejoin="round" marker-end="url(#arrow-E23A3A)"/><text x="1829" y="1342" text-anchor="start" font-family="Noto Sans KR, Apple SD Gothic Neo, sans-serif" font-size="14" font-weight="800" fill="#E23A3A"><tspan x="1829" dy="0">Relay Withdraw</tspan></text><text x="1829" y="1372" text-anchor="start" font-family="Noto Sans KR, Apple SD Gothic Neo, sans-serif" font-size="12.5" font-weight="600" fill="#64748B"><tspan x="1829" dy="0">Relayer 계정 제출</tspan></text><rect x="2140" y="1328" width="34" height="34" rx="8" fill="#F9FBFF" stroke="#9DB7E8" stroke-width="1.8" stroke-dasharray="6 5"/><text x="2190" y="1342" text-anchor="start" font-family="Noto Sans KR, Apple SD Gothic Neo, sans-serif" font-size="14" font-weight="800" fill="#172033"><tspan x="2190" dy="0">신뢰 경계</tspan></text><text x="2190" y="1372" text-anchor="start" font-family="Noto Sans KR, Apple SD Gothic Neo, sans-serif" font-size="12.5" font-weight="600" fill="#64748B"><tspan x="2190" dy="0">클라이언트 로컬</tspan></text></svg>